<svg width="80" height="80" viewBox="0 0 80 80" fill="none" xmlns="http://www.w3.org/2000/svg">
<path d="M8 26.6132C8 25.7222 8.72225 25 9.61318 25H60.3868C61.2778 25 62 25.7222 62 26.6132V64.302C62 68.5535 58.5535 72 54.302 72H15.698C11.4465 72 8 68.5535 8 64.302V26.6132Z" fill="white" stroke="#2A9DDD"/>
<path d="M8 15.698C8 11.4465 11.4465 8 15.698 8H54.302C58.5535 8 62 11.4465 62 15.698V20.3868C62 21.2778 61.2778 22 60.3868 22H9.61318C8.72224 22 8 21.2778 8 20.3868V15.698Z" fill="white" stroke="#2A9DDD"/>
<circle cx="55.7329" cy="14.6437" r="1.5332" fill="#2A9DDD"/>
<rect x="45" y="13.1105" width="7.15494" height="3.0664" rx="1.44337" fill="#2A9DDD"/>
<path d="M30.6252 47.2742L30.5632 47.7704L30.6252 47.2742ZM34.1312 48.1264L33.9608 48.5965H33.9608L34.1312 48.1264ZM34.9137 48.4196L34.7353 48.8867L34.736 48.887L34.9137 48.4196ZM34.9139 48.4197L35.0923 47.9526L35.0916 47.9524L34.9139 48.4197ZM36.4012 48.919L36.2799 49.4041H36.2799L36.4012 48.919ZM35.6736 51.8295L35.7949 51.3444L35.6736 51.8295ZM33.691 51.1656L33.5125 51.6327V51.6327L33.691 51.1656ZM33.1088 50.9468L33.2792 50.4768L33.1088 50.9468ZM30.2531 50.251L30.3151 49.7549L30.2531 50.251ZM41.1624 51.8249L41.2499 52.3171L41.1624 51.8249ZM42.216 53.1048L41.7733 52.8722L42.216 53.1048ZM22.6607 48.667L22.8753 49.1186L22.6607 48.667ZM43.2491 48.2818L43.1216 47.7983L43.2491 48.2818ZM32.4749 37.5C38.2721 37.5 42.9717 42.1996 42.9717 47.9969H43.9717C43.9717 41.6473 38.8244 36.5 32.4749 36.5V37.5ZM21.978 47.9969C21.978 42.1996 26.6776 37.5 32.4749 37.5V36.5C26.1253 36.5 20.978 41.6473 20.978 47.9969H21.978ZM22.8753 49.1186C24.8659 48.1727 27.5897 47.3987 30.5632 47.7704L30.6873 46.7781C27.4715 46.3761 24.5531 47.2142 22.4461 48.2154L22.8753 49.1186ZM30.5632 47.7704C32.0142 47.9517 33.0643 48.2715 33.9608 48.5965L34.3016 47.6564C33.3567 47.3139 32.2321 46.9712 30.6873 46.7781L30.5632 47.7704ZM33.9608 48.5965C34.2491 48.701 34.5006 48.7971 34.7353 48.8867L35.0921 47.9525C34.8579 47.8631 34.5989 47.7641 34.3016 47.6564L33.9608 48.5965ZM34.736 48.887L34.7362 48.8871L35.0916 47.9524L35.0914 47.9523L34.736 48.887ZM34.7355 48.8868C35.27 49.091 35.7251 49.2654 36.2799 49.4041L36.5225 48.434C36.0344 48.3119 35.633 48.1592 35.0923 47.9526L34.7355 48.8868ZM36.2799 49.4041C37.6142 49.7377 39.4234 49.8082 43.3766 48.7652L43.1216 47.7983C39.2466 48.8206 37.6254 48.7097 36.5225 48.434L36.2799 49.4041ZM41.0749 51.3326C38.6835 51.7577 37.1318 51.6786 35.7949 51.3444L35.5523 52.3145C37.0567 52.6906 38.7549 52.7607 41.2499 52.3171L41.0749 51.3326ZM35.7949 51.3444C35.1201 51.1757 34.4738 50.9294 33.8694 50.6985L33.5125 51.6327C34.1096 51.8608 34.8104 52.129 35.5523 52.3145L35.7949 51.3444ZM33.8694 50.6985C33.6674 50.6214 33.4687 50.5455 33.2792 50.4768L32.9384 51.4169C33.1184 51.4822 33.3088 51.5549 33.5125 51.6327L33.8694 50.6985ZM33.2792 50.4768C32.4793 50.1868 31.5784 49.9128 30.3151 49.7549L30.1911 50.7472C31.3605 50.8934 32.1868 51.1444 32.9384 51.4169L33.2792 50.4768ZM30.3151 49.7549C27.2431 49.3709 24.4455 50.4569 22.7818 51.4238L23.2843 52.2884C24.8375 51.3857 27.412 50.3998 30.1911 50.7472L30.3151 49.7549ZM32.4749 58.4937C28.4081 58.4937 24.8806 56.1811 23.1373 52.797L22.2483 53.255C24.1564 56.9589 28.0192 59.4937 32.4749 59.4937V58.4937ZM41.7733 52.8722C40.0167 56.2154 36.5114 58.4937 32.4749 58.4937V59.4937C36.8974 59.4937 40.7359 56.9964 42.6586 53.3374L41.7733 52.8722ZM22.7818 51.4238C22.141 51.7963 21.9103 52.5988 22.2483 53.255L23.1373 52.797C23.0417 52.6115 23.1066 52.3917 23.2843 52.2884L22.7818 51.4238ZM41.2499 52.3171C41.4574 52.2802 41.6342 52.3602 41.7334 52.4772C41.8252 52.5853 41.8527 52.7211 41.7733 52.8722L42.6586 53.3374C42.9432 52.7956 42.8293 52.223 42.4959 51.8301C42.1699 51.446 41.6379 51.2325 41.0749 51.3326L41.2499 52.3171ZM20.978 47.9969C20.978 49.0338 22.08 49.4965 22.8753 49.1186L22.4461 48.2154C22.3265 48.2722 22.1999 48.2611 22.1086 48.2111C22.0239 48.1647 21.978 48.0928 21.978 47.9969H20.978ZM42.9717 47.9969C42.9717 47.8958 43.0396 47.8199 43.1216 47.7983L43.3766 48.7652C43.7178 48.6752 43.9717 48.366 43.9717 47.9969H42.9717Z" fill="#2A9DDD"/>
<path d="M68 45H52C49.7909 45 48 46.7909 48 49V68C48 70.2091 49.7909 72 52 72H68C70.2091 72 72 70.2091 72 68V49C72 46.7909 70.2091 45 68 45Z" fill="#E5F3F8" stroke="#2A9DDD"/>
</svg>
